<svg xmlns="http://www.w3.org/2000/svg" viewBox="0 0 128 128">
  <rect width="128" height="128" fill="#0c0c0c"/>
  <!-- Scanlines -->
  <rect x="0" y="0" width="128" height="2" fill="#0f0" opacity="0.03"/>
  <rect x="0" y="8" width="128" height="2" fill="#0f0" opacity="0.03"/>
  <rect x="0" y="16" width="128" height="2" fill="#0f0" opacity="0.03"/>
  <rect x="0" y="24" width="128" height="2" fill="#0f0" opacity="0.03"/>
  <rect x="0" y="32" width="128" height="2" fill="#0f0" opacity="0.03"/>
  <rect x="0" y="40" width="128" height="2" fill="#0f0" opacity="0.03"/>
  <rect x="0" y="48" width="128" height="2" fill="#0f0" opacity="0.03"/>
  <rect x="0" y="56" width="128" height="2" fill="#0f0" opacity="0.03"/>
  <rect x="0" y="64" width="128" height="2" fill="#0f0" opacity="0.03"/>
  <rect x="0" y="72" width="128" height="2" fill="#0f0" opacity="0.03"/>
  <rect x="0" y="80" width="128" height="2" fill="#0f0" opacity="0.03"/>
  <rect x="0" y="88" width="128" height="2" fill="#0f0" opacity="0.03"/>
  <rect x="0" y="96" width="128" height="2" fill="#0f0" opacity="0.03"/>
  <rect x="0" y="104" width="128" height="2" fill="#0f0" opacity="0.03"/>
  <rect x="0" y="112" width="128" height="2" fill="#0f0" opacity="0.03"/>
  <rect x="0" y="120" width="128" height="2" fill="#0f0" opacity="0.03"/>
  <text x="64" y="94" text-anchor="middle" font-family="Courier, monospace" font-size="88" font-weight="bold" fill="#0f0">R</text>
</svg>
